<svg id="Capa_1" enable-background="new 0 0 512 512" width="22px" height="22px" viewBox="0 0 512 512" xmlns="http://www.w3.org/2000/svg"><g><g><g><g><g><g><circle cx="256" cy="256" fill="#7982ed" r="256"/></g></g></g></g></g><path d="m512 256c0-13.174-.995-26.116-2.915-38.754l-127.08-127.08-224.187 151.106-45.948 125.877 144.849 144.85c141.054-.388 255.281-114.854 255.281-255.999z" fill="#4d56b2"/><g><path d="m382.005 299.47h-201.286l-68.849 67.68v-276.985h270.135z" fill="#fff"/></g><g><path d="m247.496 90.166h134.509v209.305h-134.509z" fill="#e9ecf4"/></g><g><g><path d="m141.962 128.567h209.951v31.063h-209.951z" fill="#717687"/></g><g><path d="m247.496 128.567h104.417v31.063h-104.417z" fill="#575a65"/></g><g><path d="m141.962 179.752h209.951v31.063h-209.951z" fill="#717687"/></g><g><path d="m247.496 179.752h104.417v31.063h-104.417z" fill="#575a65"/></g><g><path d="m141.962 230.937h209.951v31.063h-209.951z" fill="#717687"/></g><g><path d="m247.496 230.937h104.417v31.063h-104.417z" fill="#575a65"/></g></g><g><path d="m274.264 339.547-11.59 47.479 47.48-11.589-3.739-32.152z" fill="#f1cc30"/></g><g><path d="m259.114 252.216h225.984v50.756h-225.984z" fill="#e06a24" transform="matrix(.707 -.707 .707 .707 -87.302 344.424)"/></g></g></svg>