<svg  viewBox="0 0 512 512" width="22px" height="22px" xmlns="http://www.w3.org/2000/svg"><g><g><path d="m344 327.13v168.87l-88-64-88 64v-168.87" fill="#006df0"/><circle cx="256" cy="184" fill="#ff9811" r="168"/><circle cx="256" cy="184" fill="#ffda44" r="136"/><g><path d="m336 200a16 16 0 0 1 0 32h-16a16 16 0 0 1 0 32h-80l-16-16h-24v-96h24l16-16 8-44a20 20 0 0 1 40 0v44h48a16 16 0 0 1 0 32 16 16 0 0 1 0 32z" fill="#ffdaaa"/><path d="m168 144h32v112h-32z" fill="#787680"/></g></g><g><path d="m256 40c-79.4 0-144 64.6-144 144s64.6 144 144 144 144-64.6 144-144-64.6-144-144-144zm0 272a128 128 0 1 1 128-128 128.144 128.144 0 0 1 -128 128z"/><path d="m256 8c-97.05 0-176 78.95-176 176a175.986 175.986 0 0 0 80 147.44v164.56a8 8 0 0 0 12.71 6.47l83.29-60.58 83.29 60.58a8 8 0 0 0 12.71-6.47v-164.56a175.986 175.986 0 0 0 80-147.44c0-97.05-78.95-176-176-176zm80 472.29-75.29-54.76a8.015 8.015 0 0 0 -9.42 0l-75.29 54.76v-139.55a175.777 175.777 0 0 0 160 0zm-80-136.29c-88.22 0-160-71.78-160-160s71.78-160 160-160 160 71.78 160 160-71.78 160-160 160z"/><path d="m353.89 167.99a23.994 23.994 0 0 0 -17.89-39.99h-40v-36a28 28 0 0 0 -55.99-.78l-7.43 40.89-11.89 11.89h-12.69a8 8 0 0 0 -8-8h-32a8 8 0 0 0 -8 8v112a8 8 0 0 0 8 8h32a8 8 0 0 0 8-8h12.69l13.65 13.66a8.008 8.008 0 0 0 5.66 2.34h80a23.994 23.994 0 0 0 22.31-32.84 24.014 24.014 0 0 0 11.58-39.17 24 24 0 0 0 0-32zm-161.89 80.01h-16v-96h16zm120-72h24a8 8 0 0 1 0 16h-24a8 8 0 0 0 0 16h24a8 8 0 0 1 0 16h-24a8 8 0 0 0 0 16h8a8 8 0 0 1 0 16h-76.69l-13.65-13.66a8.008 8.008 0 0 0 -5.66-2.34h-16v-80h16a8.008 8.008 0 0 0 5.66-2.34l16-16a8 8 0 0 0 2.21-4.23l8-44a7.608 7.608 0 0 0 .13-1.43 12 12 0 0 1 24 0v44a8 8 0 0 0 8 8h48a8 8 0 0 1 0 16h-24a8 8 0 0 0 0 16z"/></g></g></svg>